{
  "asset": {
    "version": "2.0",
    "generator": "gungame programmatic greybox v1"
  },
  "scene": 0,
  "scenes": [
    {
      "name": "greybox",
      "nodes": [
        0,
        1,
        2,
        3,
        4,
        5,
        6,
        7,
        8,
        9,
        10,
        11,
        12,
        13,
        14,
        15,
        16,
        17,
        18,
        19,
        20,
        21,
        22,
        23,
        24,
        25,
        26,
        27,
        28,
        29,
        30,
        31,
        32,
        33,
        34,
        35,
        36,
        37,
        38,
        39,
        40,
        41,
        42,
        43,
        44
      ]
    }
  ],
  "nodes": [
    {
      "name": "col_floor",
      "mesh": 0
    },
    {
      "name": "col_wall_north",
      "mesh": 1
    },
    {
      "name": "col_wall_south",
      "mesh": 2
    },
    {
      "name": "col_wall_west",
      "mesh": 3
    },
    {
      "name": "col_wall_east",
      "mesh": 4
    },
    {
      "name": "col_ramp_15deg",
      "mesh": 5
    },
    {
      "name": "col_ramp_30deg",
      "mesh": 6
    },
    {
      "name": "col_ramp_45deg",
      "mesh": 7
    },
    {
      "name": "col_ledge_040",
      "mesh": 8
    },
    {
      "name": "col_tower_west",
      "mesh": 9
    },
    {
      "name": "col_tower_east",
      "mesh": 10
    },
    {
      "name": "col_tower_west_jumpdeck",
      "mesh": 11
    },
    {
      "name": "col_tower_east_jumpdeck",
      "mesh": 12
    },
    {
      "name": "bounds_arena",
      "mesh": 13
    },
    {
      "name": "kill_void",
      "mesh": 14
    },
    {
      "name": "col_stair_0",
      "mesh": 15
    },
    {
      "name": "col_stair_1",
      "mesh": 16
    },
    {
      "name": "col_stair_2",
      "mesh": 17
    },
    {
      "name": "col_stair_3",
      "mesh": 18
    },
    {
      "name": "col_stair_4",
      "mesh": 19
    },
    {
      "name": "col_stair_5",
      "mesh": 20
    },
    {
      "name": "spawn_0_0_00",
      "translation": [
        -24,
        0.05,
        -14
      ],
      "rotation": [
        0,
        0,
        0,
        1
      ]
    },
    {
      "name": "spawn_0_1_01",
      "translation": [
        -16,
        0.05,
        -14
      ],
      "rotation": [
        0,
        0,
        0,
        1
      ]
    },
    {
      "name": "spawn_0_0_02",
      "translation": [
        -8,
        0.05,
        -14
      ],
      "rotation": [
        0,
        0,
        0,
        1
      ]
    },
    {
      "name": "spawn_0_1_03",
      "translation": [
        0,
        0.05,
        -14
      ],
      "rotation": [
        0,
        0,
        0,
        1
      ]
    },
    {
      "name": "spawn_0_0_04",
      "translation": [
        8,
        0.05,
        -14
      ],
      "rotation": [
        0,
        0,
        0,
        1
      ]
    },
    {
      "name": "spawn_0_1_05",
      "translation": [
        16,
        0.05,
        -14
      ],
      "rotation": [
        0,
        0,
        0,
        1
      ]
    },
    {
      "name": "spawn_0_0_06",
      "translation": [
        24,
        0.05,
        -14
      ],
      "rotation": [
        0,
        0,
        0,
        1
      ]
    },
    {
      "name": "spawn_0_1_07",
      "translation": [
        -24,
        0.05,
        15
      ],
      "rotation": [
        0,
        1,
        0,
        6.123233995736766e-17
      ]
    },
    {
      "name": "spawn_0_0_08",
      "translation": [
        -14,
        0.05,
        15
      ],
      "rotation": [
        0,
        1,
        0,
        6.123233995736766e-17
      ]
    },
    {
      "name": "spawn_0_1_09",
      "translation": [
        -4,
        0.05,
        15
      ],
      "rotation": [
        0,
        1,
        0,
        6.123233995736766e-17
      ]
    },
    {
      "name": "spawn_0_0_10",
      "translation": [
        8,
        0.05,
        15
      ],
      "rotation": [
        0,
        1,
        0,
        6.123233995736766e-17
      ]
    },
    {
      "name": "spawn_0_1_11",
      "translation": [
        18,
        0.05,
        15
      ],
      "rotation": [
        0,
        1,
        0,
        6.123233995736766e-17
      ]
    },
    {
      "name": "spawn_1_0_00",
      "translation": [
        -24,
        0.05,
        -14
      ],
      "rotation": [
        0,
        0,
        0,
        1
      ]
    },
    {
      "name": "spawn_1_0_01",
      "translation": [
        -16,
        0.05,
        -14
      ],
      "rotation": [
        0,
        0,
        0,
        1
      ]
    },
    {
      "name": "spawn_1_0_02",
      "translation": [
        -8,
        0.05,
        -14
      ],
      "rotation": [
        0,
        0,
        0,
        1
      ]
    },
    {
      "name": "spawn_1_0_03",
      "translation": [
        0,
        0.05,
        -14
      ],
      "rotation": [
        0,
        0,
        0,
        1
      ]
    },
    {
      "name": "spawn_1_0_04",
      "translation": [
        8,
        0.05,
        -14
      ],
      "rotation": [
        0,
        0,
        0,
        1
      ]
    },
    {
      "name": "spawn_1_0_05",
      "translation": [
        16,
        0.05,
        -14
      ],
      "rotation": [
        0,
        0,
        0,
        1
      ]
    },
    {
      "name": "spawn_1_0_06",
      "translation": [
        24,
        0.05,
        -14
      ],
      "rotation": [
        0,
        0,
        0,
        1
      ]
    },
    {
      "name": "spawn_1_0_07",
      "translation": [
        -24,
        0.05,
        15
      ],
      "rotation": [
        0,
        1,
        0,
        6.123233995736766e-17
      ]
    },
    {
      "name": "spawn_1_0_08",
      "translation": [
        -14,
        0.05,
        15
      ],
      "rotation": [
        0,
        1,
        0,
        6.123233995736766e-17
      ]
    },
    {
      "name": "spawn_1_0_09",
      "translation": [
        -4,
        0.05,
        15
      ],
      "rotation": [
        0,
        1,
        0,
        6.123233995736766e-17
      ]
    },
    {
      "name": "spawn_1_0_10",
      "translation": [
        8,
        0.05,
        15
      ],
      "rotation": [
        0,
        1,
        0,
        6.123233995736766e-17
      ]
    },
    {
      "name": "spawn_1_0_11",
      "translation": [
        18,
        0.05,
        15
      ],
      "rotation": [
        0,
        1,
        0,
        6.123233995736766e-17
      ]
    }
  ],
  "meshes": [
    {
      "name": "col_floor",
      "primitives": [
        {
          "attributes": {
            "POSITION": 0
          },
          "indices": 1,
          "mode": 4
        }
      ]
    },
    {
      "name": "col_wall_north",
      "primitives": [
        {
          "attributes": {
            "POSITION": 2
          },
          "indices": 3,
          "mode": 4
        }
      ]
    },
    {
      "name": "col_wall_south",
      "primitives": [
        {
          "attributes": {
            "POSITION": 4
          },
          "indices": 5,
          "mode": 4
        }
      ]
    },
    {
      "name": "col_wall_west",
      "primitives": [
        {
          "attributes": {
            "POSITION": 6
          },
          "indices": 7,
          "mode": 4
        }
      ]
    },
    {
      "name": "col_wall_east",
      "primitives": [
        {
          "attributes": {
            "POSITION": 8
          },
          "indices": 9,
          "mode": 4
        }
      ]
    },
    {
      "name": "col_ramp_15deg",
      "primitives": [
        {
          "attributes": {
            "POSITION": 10
          },
          "indices": 11,
          "mode": 4
        }
      ]
    },
    {
      "name": "col_ramp_30deg",
      "primitives": [
        {
          "attributes": {
            "POSITION": 12
          },
          "indices": 13,
          "mode": 4
        }
      ]
    },
    {
      "name": "col_ramp_45deg",
      "primitives": [
        {
          "attributes": {
            "POSITION": 14
          },
          "indices": 15,
          "mode": 4
        }
      ]
    },
    {
      "name": "col_ledge_040",
      "primitives": [
        {
          "attributes": {
            "POSITION": 16
          },
          "indices": 17,
          "mode": 4
        }
      ]
    },
    {
      "name": "col_tower_west",
      "primitives": [
        {
          "attributes": {
            "POSITION": 18
          },
          "indices": 19,
          "mode": 4
        }
      ]
    },
    {
      "name": "col_tower_east",
      "primitives": [
        {
          "attributes": {
            "POSITION": 20
          },
          "indices": 21,
          "mode": 4
        }
      ]
    },
    {
      "name": "col_tower_west_jumpdeck",
      "primitives": [
        {
          "attributes": {
            "POSITION": 22
          },
          "indices": 23,
          "mode": 4
        }
      ]
    },
    {
      "name": "col_tower_east_jumpdeck",
      "primitives": [
        {
          "attributes": {
            "POSITION": 24
          },
          "indices": 25,
          "mode": 4
        }
      ]
    },
    {
      "name": "bounds_arena",
      "primitives": [
        {
          "attributes": {
            "POSITION": 26
          },
          "indices": 27,
          "mode": 4
        }
      ]
    },
    {
      "name": "kill_void",
      "primitives": [
        {
          "attributes": {
            "POSITION": 28
          },
          "indices": 29,
          "mode": 4
        }
      ]
    },
    {
      "name": "col_stair_0",
      "primitives": [
        {
          "attributes": {
            "POSITION": 30
          },
          "indices": 31,
          "mode": 4
        }
      ]
    },
    {
      "name": "col_stair_1",
      "primitives": [
        {
          "attributes": {
            "POSITION": 32
          },
          "indices": 33,
          "mode": 4
        }
      ]
    },
    {
      "name": "col_stair_2",
      "primitives": [
        {
          "attributes": {
            "POSITION": 34
          },
          "indices": 35,
          "mode": 4
        }
      ]
    },
    {
      "name": "col_stair_3",
      "primitives": [
        {
          "attributes": {
            "POSITION": 36
          },
          "indices": 37,
          "mode": 4
        }
      ]
    },
    {
      "name": "col_stair_4",
      "primitives": [
        {
          "attributes": {
            "POSITION": 38
          },
          "indices": 39,
          "mode": 4
        }
      ]
    },
    {
      "name": "col_stair_5",
      "primitives": [
        {
          "attributes": {
            "POSITION": 40
          },
          "indices": 41,
          "mode": 4
        }
      ]
    }
  ],
  "accessors": [
    {
      "bufferView": 0,
      "componentType": 5126,
      "count": 8,
      "type": "VEC3",
      "min": [
        -29.75,
        -0.2,
        -19.75
      ],
      "max": [
        29.75,
        0,
        19.75
      ]
    },
    {
      "bufferView": 1,
      "componentType": 5125,
      "count": 36,
      "type": "SCALAR",
      "min": [
        0
      ],
      "max": [
        7
      ]
    },
    {
      "bufferView": 2,
      "componentType": 5126,
      "count": 8,
      "type": "VEC3",
      "min": [
        -29.5,
        -0.02,
        -20
      ],
      "max": [
        29.5,
        4,
        -19.5
      ]
    },
    {
      "bufferView": 3,
      "componentType": 5125,
      "count": 30,
      "type": "SCALAR",
      "min": [
        0
      ],
      "max": [
        7
      ]
    },
    {
      "bufferView": 4,
      "componentType": 5126,
      "count": 8,
      "type": "VEC3",
      "min": [
        -29.5,
        -0.02,
        19.5
      ],
      "max": [
        29.5,
        4,
        20
      ]
    },
    {
      "bufferView": 5,
      "componentType": 5125,
      "count": 30,
      "type": "SCALAR",
      "min": [
        0
      ],
      "max": [
        7
      ]
    },
    {
      "bufferView": 6,
      "componentType": 5126,
      "count": 8,
      "type": "VEC3",
      "min": [
        -30,
        -0.02,
        -19.5
      ],
      "max": [
        -29.5,
        4,
        19.5
      ]
    },
    {
      "bufferView": 7,
      "componentType": 5125,
      "count": 30,
      "type": "SCALAR",
      "min": [
        0
      ],
      "max": [
        7
      ]
    },
    {
      "bufferView": 8,
      "componentType": 5126,
      "count": 8,
      "type": "VEC3",
      "min": [
        29.5,
        -0.02,
        -19.5
      ],
      "max": [
        30,
        4,
        19.5
      ]
    },
    {
      "bufferView": 9,
      "componentType": 5125,
      "count": 30,
      "type": "SCALAR",
      "min": [
        0
      ],
      "max": [
        7
      ]
    },
    {
      "bufferView": 10,
      "componentType": 5126,
      "count": 8,
      "type": "VEC3",
      "min": [
        -24,
        -0.02,
        -12
      ],
      "max": [
        -16,
        2.1435935394489816,
        -8
      ]
    },
    {
      "bufferView": 11,
      "componentType": 5125,
      "count": 30,
      "type": "SCALAR",
      "min": [
        0
      ],
      "max": [
        7
      ]
    },
    {
      "bufferView": 12,
      "componentType": 5126,
      "count": 8,
      "type": "VEC3",
      "min": [
        -4,
        -0.02,
        -12
      ],
      "max": [
        2,
        3.4641016151377544,
        -8
      ]
    },
    {
      "bufferView": 13,
      "componentType": 5125,
      "count": 30,
      "type": "SCALAR",
      "min": [
        0
      ],
      "max": [
        7
      ]
    },
    {
      "bufferView": 14,
      "componentType": 5126,
      "count": 8,
      "type": "VEC3",
      "min": [
        16,
        -0.02,
        -12
      ],
      "max": [
        20,
        4,
        -8
      ]
    },
    {
      "bufferView": 15,
      "componentType": 5125,
      "count": 30,
      "type": "SCALAR",
      "min": [
        0
      ],
      "max": [
        7
      ]
    },
    {
      "bufferView": 16,
      "componentType": 5126,
      "count": 8,
      "type": "VEC3",
      "min": [
        -8,
        -0.02,
        4
      ],
      "max": [
        0,
        0.4,
        10
      ]
    },
    {
      "bufferView": 17,
      "componentType": 5125,
      "count": 30,
      "type": "SCALAR",
      "min": [
        0
      ],
      "max": [
        7
      ]
    },
    {
      "bufferView": 18,
      "componentType": 5126,
      "count": 8,
      "type": "VEC3",
      "min": [
        -25,
        -0.02,
        7
      ],
      "max": [
        -20,
        5,
        13
      ]
    },
    {
      "bufferView": 19,
      "componentType": 5125,
      "count": 30,
      "type": "SCALAR",
      "min": [
        0
      ],
      "max": [
        7
      ]
    },
    {
      "bufferView": 20,
      "componentType": 5126,
      "count": 8,
      "type": "VEC3",
      "min": [
        20,
        -0.02,
        7
      ],
      "max": [
        25,
        5,
        13
      ]
    },
    {
      "bufferView": 21,
      "componentType": 5125,
      "count": 30,
      "type": "SCALAR",
      "min": [
        0
      ],
      "max": [
        7
      ]
    },
    {
      "bufferView": 22,
      "componentType": 5126,
      "count": 8,
      "type": "VEC3",
      "min": [
        -19,
        4.5,
        8
      ],
      "max": [
        -13,
        5,
        12
      ]
    },
    {
      "bufferView": 23,
      "componentType": 5125,
      "count": 36,
      "type": "SCALAR",
      "min": [
        0
      ],
      "max": [
        7
      ]
    },
    {
      "bufferView": 24,
      "componentType": 5126,
      "count": 8,
      "type": "VEC3",
      "min": [
        13,
        4.5,
        8
      ],
      "max": [
        19,
        5,
        12
      ]
    },
    {
      "bufferView": 25,
      "componentType": 5125,
      "count": 36,
      "type": "SCALAR",
      "min": [
        0
      ],
      "max": [
        7
      ]
    },
    {
      "bufferView": 26,
      "componentType": 5126,
      "count": 8,
      "type": "VEC3",
      "min": [
        -30,
        -4,
        -20
      ],
      "max": [
        30,
        12,
        20
      ]
    },
    {
      "bufferView": 27,
      "componentType": 5125,
      "count": 36,
      "type": "SCALAR",
      "min": [
        0
      ],
      "max": [
        7
      ]
    },
    {
      "bufferView": 28,
      "componentType": 5126,
      "count": 8,
      "type": "VEC3",
      "min": [
        -35,
        -6,
        -25
      ],
      "max": [
        35,
        -3,
        25
      ]
    },
    {
      "bufferView": 29,
      "componentType": 5125,
      "count": 36,
      "type": "SCALAR",
      "min": [
        0
      ],
      "max": [
        7
      ]
    },
    {
      "bufferView": 30,
      "componentType": 5126,
      "count": 8,
      "type": "VEC3",
      "min": [
        5,
        -0.02,
        3
      ],
      "max": [
        5.8,
        0.3,
        7
      ]
    },
    {
      "bufferView": 31,
      "componentType": 5125,
      "count": 30,
      "type": "SCALAR",
      "min": [
        0
      ],
      "max": [
        7
      ]
    },
    {
      "bufferView": 32,
      "componentType": 5126,
      "count": 8,
      "type": "VEC3",
      "min": [
        5.8,
        -0.02,
        3
      ],
      "max": [
        6.6,
        0.6,
        7
      ]
    },
    {
      "bufferView": 33,
      "componentType": 5125,
      "count": 30,
      "type": "SCALAR",
      "min": [
        0
      ],
      "max": [
        7
      ]
    },
    {
      "bufferView": 34,
      "componentType": 5126,
      "count": 8,
      "type": "VEC3",
      "min": [
        6.6,
        -0.02,
        3
      ],
      "max": [
        7.4,
        0.8999999999999999,
        7
      ]
    },
    {
      "bufferView": 35,
      "componentType": 5125,
      "count": 30,
      "type": "SCALAR",
      "min": [
        0
      ],
      "max": [
        7
      ]
    },
    {
      "bufferView": 36,
      "componentType": 5126,
      "count": 8,
      "type": "VEC3",
      "min": [
        7.4,
        -0.02,
        3
      ],
      "max": [
        8.2,
        1.2,
        7
      ]
    },
    {
      "bufferView": 37,
      "componentType": 5125,
      "count": 30,
      "type": "SCALAR",
      "min": [
        0
      ],
      "max": [
        7
      ]
    },
    {
      "bufferView": 38,
      "componentType": 5126,
      "count": 8,
      "type": "VEC3",
      "min": [
        8.2,
        -0.02,
        3
      ],
      "max": [
        9,
        1.5,
        7
      ]
    },
    {
      "bufferView": 39,
      "componentType": 5125,
      "count": 30,
      "type": "SCALAR",
      "min": [
        0
      ],
      "max": [
        7
      ]
    },
    {
      "bufferView": 40,
      "componentType": 5126,
      "count": 8,
      "type": "VEC3",
      "min": [
        9,
        -0.02,
        3
      ],
      "max": [
        9.8,
        1.7999999999999998,
        7
      ]
    },
    {
      "bufferView": 41,
      "componentType": 5125,
      "count": 30,
      "type": "SCALAR",
      "min": [
        0
      ],
      "max": [
        7
      ]
    }
  ],
  "bufferViews": [
    {
      "buffer": 0,
      "byteOffset": 0,
      "byteLength": 96,
      "target": 34962
    },
    {
      "buffer": 0,
      "byteOffset": 96,
      "byteLength": 144,
      "target": 34963
    },
    {
      "buffer": 0,
      "byteOffset": 240,
      "byteLength": 96,
      "target": 34962
    },
    {
      "buffer": 0,
      "byteOffset": 336,
      "byteLength": 120,
      "target": 34963
    },
    {
      "buffer": 0,
      "byteOffset": 456,
      "byteLength": 96,
      "target": 34962
    },
    {
      "buffer": 0,
      "byteOffset": 552,
      "byteLength": 120,
      "target": 34963
    },
    {
      "buffer": 0,
      "byteOffset": 672,
      "byteLength": 96,
      "target": 34962
    },
    {
      "buffer": 0,
      "byteOffset": 768,
      "byteLength": 120,
      "target": 34963
    },
    {
      "buffer": 0,
      "byteOffset": 888,
      "byteLength": 96,
      "target": 34962
    },
    {
      "buffer": 0,
      "byteOffset": 984,
      "byteLength": 120,
      "target": 34963
    },
    {
      "buffer": 0,
      "byteOffset": 1104,
      "byteLength": 96,
      "target": 34962
    },
    {
      "buffer": 0,
      "byteOffset": 1200,
      "byteLength": 120,
      "target": 34963
    },
    {
      "buffer": 0,
      "byteOffset": 1320,
      "byteLength": 96,
      "target": 34962
    },
    {
      "buffer": 0,
      "byteOffset": 1416,
      "byteLength": 120,
      "target": 34963
    },
    {
      "buffer": 0,
      "byteOffset": 1536,
      "byteLength": 96,
      "target": 34962
    },
    {
      "buffer": 0,
      "byteOffset": 1632,
      "byteLength": 120,
      "target": 34963
    },
    {
      "buffer": 0,
      "byteOffset": 1752,
      "byteLength": 96,
      "target": 34962
    },
    {
      "buffer": 0,
      "byteOffset": 1848,
      "byteLength": 120,
      "target": 34963
    },
    {
      "buffer": 0,
      "byteOffset": 1968,
      "byteLength": 96,
      "target": 34962
    },
    {
      "buffer": 0,
      "byteOffset": 2064,
      "byteLength": 120,
      "target": 34963
    },
    {
      "buffer": 0,
      "byteOffset": 2184,
      "byteLength": 96,
      "target": 34962
    },
    {
      "buffer": 0,
      "byteOffset": 2280,
      "byteLength": 120,
      "target": 34963
    },
    {
      "buffer": 0,
      "byteOffset": 2400,
      "byteLength": 96,
      "target": 34962
    },
    {
      "buffer": 0,
      "byteOffset": 2496,
      "byteLength": 144,
      "target": 34963
    },
    {
      "buffer": 0,
      "byteOffset": 2640,
      "byteLength": 96,
      "target": 34962
    },
    {
      "buffer": 0,
      "byteOffset": 2736,
      "byteLength": 144,
      "target": 34963
    },
    {
      "buffer": 0,
      "byteOffset": 2880,
      "byteLength": 96,
      "target": 34962
    },
    {
      "buffer": 0,
      "byteOffset": 2976,
      "byteLength": 144,
      "target": 34963
    },
    {
      "buffer": 0,
      "byteOffset": 3120,
      "byteLength": 96,
      "target": 34962
    },
    {
      "buffer": 0,
      "byteOffset": 3216,
      "byteLength": 144,
      "target": 34963
    },
    {
      "buffer": 0,
      "byteOffset": 3360,
      "byteLength": 96,
      "target": 34962
    },
    {
      "buffer": 0,
      "byteOffset": 3456,
      "byteLength": 120,
      "target": 34963
    },
    {
      "buffer": 0,
      "byteOffset": 3576,
      "byteLength": 96,
      "target": 34962
    },
    {
      "buffer": 0,
      "byteOffset": 3672,
      "byteLength": 120,
      "target": 34963
    },
    {
      "buffer": 0,
      "byteOffset": 3792,
      "byteLength": 96,
      "target": 34962
    },
    {
      "buffer": 0,
      "byteOffset": 3888,
      "byteLength": 120,
      "target": 34963
    },
    {
      "buffer": 0,
      "byteOffset": 4008,
      "byteLength": 96,
      "target": 34962
    },
    {
      "buffer": 0,
      "byteOffset": 4104,
      "byteLength": 120,
      "target": 34963
    },
    {
      "buffer": 0,
      "byteOffset": 4224,
      "byteLength": 96,
      "target": 34962
    },
    {
      "buffer": 0,
      "byteOffset": 4320,
      "byteLength": 120,
      "target": 34963
    },
    {
      "buffer": 0,
      "byteOffset": 4440,
      "byteLength": 96,
      "target": 34962
    },
    {
      "buffer": 0,
      "byteOffset": 4536,
      "byteLength": 120,
      "target": 34963
    }
  ],
  "buffers": [
    {
      "byteLength": 4656,
      "uri": "data:application/octet-stream;base64,"
    }
  ]
}
